# xmcd
#
# Track frame offsets:
# 150
# 1077
# 17370
# 35845
# 50621
# 69934
# 86572
# 103607
# 122267
# 137400
# 155059
# 171196
# 183831
# 202320
# 219406
# 233043
# 243583
#
# Disc length: 3457 seconds
#
#
# Revision: 6
# Processed by: cddbd v1.5.2PL0 Copyright (c) Steve Scherf et al.
# Submitted via: FreeRIP 2.60 
#
DISCID=dc0d7f11
DTITLE=Gatinha Manhosa - Uma Historia de Amor
DYEAR=2002
DGENRE=Forró
TTITLE0=Abertura
TTITLE1=Forró Gatinha Manhosa Cd 1  Só O Amor Me Faz
TTITLE2=Forró Gatinha Manhosa Cd 1  Adeus Nunca Mais
TTITLE3=Forró Gatinha Manhosa Cd 1  Leilão
TTITLE4=Forró Gatinha Manhosa Cd 1  Sai De Mim Tristeza
TTITLE5=Forró Gatinha Manhosa Cd 1  História De Amor
TTITLE6=Forró Gatinha Manhosa Cd 1  Foi Por Amor
TTITLE7=Forró Gatinha Manhosa Cd 1  Sei Que Vai Ser Assim
TTITLE8=Forró Gatinha Manhosa Cd 1  Mudei
TTITLE9=Forró Gatinha Manhosa Cd 1  Não É O Fim
TTITLE10=Forró Gatinha Manhosa Cd 1  Deus O Que Fazer
TTITLE11=Forró Gatinha Manhosa Cd 1  Um Pedaço De Mim
TTITLE12=Forró Gatinha Manhosa Cd 1  Nosso Amanhã
TTITLE13=Forró Gatinha Manhosa Cd 1  Sai Solidão
TTITLE14=Forró Gatinha Manhosa Cd 1  Dor E Saudade
TTITLE15=Forró Gatinha Manhosa Cd 1  Amor Fingido
TTITLE16=Forró Gatinha Manhosa Cd 1  Lembrando Você
EXTD=
EXTT0=
EXTT1=
EXTT2=
EXTT3=
EXTT4=
EXTT5=
EXTT6=
EXTT7=
EXTT8=
EXTT9=
EXTT10=
EXTT11=
EXTT12=
EXTT13=
EXTT14=
EXTT15=
EXTT16=
PLAYORDER=
